<svg id="Capa_1" enable-background="new 0 0 510.637 510.637" height="512" viewBox="0 0 510.637 510.637" width="512" xmlns="http://www.w3.org/2000/svg"><g><path d="m461.896 61.448h-58.523v-4.783c0-4.142-3.357-7.5-7.5-7.5s-7.5 3.358-7.5 7.5v4.783h-55.527v-4.783c0-4.142-3.357-7.5-7.5-7.5s-7.5 3.358-7.5 7.5v4.783h-55.527v-4.783c0-4.142-3.357-7.5-7.5-7.5s-7.5 3.358-7.5 7.5v4.783h-55.527v-4.783c0-4.142-3.357-7.5-7.5-7.5s-7.5 3.358-7.5 7.5v4.783h-55.527v-4.783c0-4.142-3.357-7.5-7.5-7.5s-7.5 3.358-7.5 7.5v4.783h-20.562c-4.143 0-7.5 3.358-7.5 7.5s3.357 7.5 7.5 7.5h20.767c.779 3.311 3.745 5.778 7.294 5.778s6.515-2.467 7.294-5.778h55.94c.779 3.311 3.745 5.778 7.294 5.778s6.515-2.467 7.294-5.778h55.94c.779 3.311 3.745 5.778 7.294 5.778s6.515-2.467 7.294-5.778h55.94c.779 3.311 3.745 5.778 7.294 5.778s6.515-2.467 7.294-5.778h55.94c.779 3.311 3.745 5.778 7.294 5.778s6.515-2.467 7.294-5.778h58.73c18.604 0 33.74 15.136 33.74 33.74v14.664h-35.726c-4.143 0-7.5 3.358-7.5 7.5s3.357 7.5 7.5 7.5h35.726v272.878c0 18.604-15.136 33.741-33.74 33.741h-109.772v-306.618h75.82c4.143 0 7.5-3.358 7.5-7.5s-3.357-7.5-7.5-7.5h-412.948v-14.664c0-18.604 15.136-33.74 33.74-33.74h5c4.143 0 7.5-3.358 7.5-7.5s-3.357-7.5-7.5-7.5h-5c-26.875-.001-48.74 21.864-48.74 48.74v242.877c0 4.142 3.357 7.5 7.5 7.5s7.5-3.358 7.5-7.5v-213.213h142.509v306.619h-108.769c-18.604 0-33.74-15.136-33.74-33.741v-27.702c0-4.142-3.357-7.5-7.5-7.5s-7.5 3.358-7.5 7.5v27.702c0 26.876 21.865 48.741 48.74 48.741h413.156c26.875 0 48.74-21.865 48.74-48.741v-302.542c.001-26.876-21.865-48.741-48.74-48.741zm-289.387 78.405h164.619v306.619h-164.619z"/><path d="m301.493 228.126h-2.295c-1.151-6.831-3.845-13.14-7.711-18.563l1.638-1.639c2.929-2.929 2.929-7.678-.001-10.606s-7.677-2.929-10.606.001l-1.638 1.638c-5.423-3.866-11.732-6.559-18.563-7.71v-2.295c0-4.142-3.357-7.5-7.5-7.5s-7.5 3.358-7.5 7.5v2.295c-6.83 1.151-13.139 3.844-18.563 7.71l-1.638-1.638c-2.929-2.929-7.678-2.93-10.606-.001-2.93 2.929-2.93 7.677-.001 10.606l1.638 1.639c-3.866 5.423-6.56 11.732-7.711 18.563h-2.295c-4.143 0-7.5 3.358-7.5 7.5s3.357 7.5 7.5 7.5h2.295c1.151 6.831 3.844 13.14 7.71 18.563l-1.638 1.638c-2.929 2.929-2.929 7.678.001 10.607 1.464 1.464 3.384 2.196 5.303 2.196s3.839-.732 5.304-2.197l1.638-1.638c5.423 3.866 11.732 6.559 18.563 7.71v2.295c0 4.142 3.357 7.5 7.5 7.5s7.5-3.358 7.5-7.5v-2.295c6.83-1.151 13.139-3.844 18.563-7.71l1.638 1.638c1.465 1.464 3.384 2.197 5.304 2.197 1.919 0 3.839-.732 5.303-2.196 2.93-2.929 2.93-7.678.001-10.607l-1.638-1.638c3.866-5.423 6.559-11.732 7.71-18.563h2.295c4.143 0 7.5-3.358 7.5-7.5s-3.357-7.5-7.5-7.5zm-46.675 37.517c-16.551 0-30.017-13.465-30.017-30.017 0-16.551 13.466-30.016 30.017-30.016s30.017 13.465 30.017 30.016-13.466 30.017-30.017 30.017z"/><path d="m130.348 243.962c.521-2.788-.22-5.64-2.035-7.824-1.829-2.202-4.523-3.465-7.386-3.465-.003 0-.005 0-.008 0h-.025c-18.01 0-33.146-14.056-34.457-31.996-.207-2.849-1.661-5.434-3.99-7.09-2.324-1.655-5.235-2.181-7.99-1.444-20.257 5.418-34.267 24.586-33.312 45.578 1.07 23.505 20.347 42.354 43.884 42.91.366.008.73.013 1.096.013 21.705-.002 40.208-15.27 44.223-36.682zm-44.966 21.672c-15.689-.371-28.539-12.932-29.253-28.596-.551-12.108 5.977-22.965 16.385-28.196 4.442 19.992 21.039 35.388 41.325 38.324-4.648 11.272-15.809 18.762-28.457 18.468z"/><path d="m476.129 237.897c0-11.038-5.856-21.153-15.195-26.704-4.772-14.78-18.756-25.163-34.552-25.163-15.795 0-29.778 10.383-34.551 25.163-9.339 5.551-15.195 15.666-15.195 26.704 0 17.128 13.935 31.063 31.063 31.063h37.368c17.127 0 31.062-13.935 31.062-31.063zm-31.063 16.063h-37.368c-8.856 0-16.063-7.206-16.063-16.063 0-6.365 3.769-12.137 9.602-14.706 2.208-.973 3.813-2.948 4.313-5.308 2.07-9.765 10.831-16.853 20.831-16.853s18.762 7.087 20.832 16.853c.501 2.36 2.105 4.335 4.313 5.308 5.833 2.569 9.602 8.341 9.602 14.706.001 8.857-7.205 16.063-16.062 16.063z"/><path d="m254.105 360.566h2.426c4.592 0 8.328 3.736 8.328 8.328 0 4.142 3.357 7.5 7.5 7.5s7.5-3.358 7.5-7.5c0-12.863-10.465-23.328-23.328-23.328h-2.426c-12.863 0-23.328 10.465-23.328 23.328v29.467c0 12.863 10.465 23.328 23.328 23.328h2.426c12.863 0 23.328-10.465 23.328-23.328 0-4.142-3.357-7.5-7.5-7.5s-7.5 3.358-7.5 7.5c0 4.592-3.736 8.328-8.328 8.328h-2.426c-4.592 0-8.328-3.736-8.328-8.328v-29.467c0-4.592 3.737-8.328 8.328-8.328z"/><path d="m281.347 318.767c-4.143 0-7.5 3.358-7.5 7.5v4.463c0 4.142 3.357 7.5 7.5 7.5s7.5-3.358 7.5-7.5v-4.463c0-4.142-3.358-7.5-7.5-7.5z"/><path d="m425.676 360.566h2.426c4.592 0 8.328 3.736 8.328 8.328 0 4.142 3.357 7.5 7.5 7.5s7.5-3.358 7.5-7.5c0-12.863-10.465-23.328-23.328-23.328h-2.426c-12.863 0-23.328 10.465-23.328 23.328v29.467c0 12.863 10.465 23.328 23.328 23.328h2.426c12.863 0 23.328-10.465 23.328-23.328 0-4.142-3.357-7.5-7.5-7.5s-7.5 3.358-7.5 7.5c0 4.592-3.736 8.328-8.328 8.328h-2.426c-4.592 0-8.328-3.736-8.328-8.328v-29.467c0-4.592 3.736-8.328 8.328-8.328z"/><path d="m460.417 330.73v-4.463c0-4.142-3.357-7.5-7.5-7.5s-7.5 3.358-7.5 7.5v4.463c0 4.142 3.357 7.5 7.5 7.5s7.5-3.358 7.5-7.5z"/><path d="m80.098 362.798h2.426c4.592 0 8.328 3.736 8.328 8.328 0 4.142 3.357 7.5 7.5 7.5s7.5-3.358 7.5-7.5c0-12.863-10.465-23.328-23.328-23.328h-2.426c-12.863 0-23.328 10.465-23.328 23.328v29.467c0 12.863 10.465 23.328 23.328 23.328h2.426c12.863 0 23.328-10.465 23.328-23.328 0-4.142-3.357-7.5-7.5-7.5s-7.5 3.358-7.5 7.5c0 4.592-3.736 8.328-8.328 8.328h-2.426c-4.592 0-8.328-3.736-8.328-8.328v-29.467c0-4.593 3.736-8.328 8.328-8.328z"/><path d="m114.838 332.962v-4.463c0-4.142-3.357-7.5-7.5-7.5s-7.5 3.358-7.5 7.5v4.463c0 4.142 3.357 7.5 7.5 7.5s7.5-3.358 7.5-7.5z"/></g></svg>